<svg xmlns="http://www.w3.org/2000/svg" xml:space="preserve" x="0px" y="0px" viewBox="0 0 300 365"><path fill="#1003A3" fill-rule="evenodd" d="M-.029 57.825v57.586l23.451 23.267 23.451 23.267v.63L23.422 185.77-.029 208.965V231l22.64-22.393 22.64-22.394 6.584-6.133 6.584-6.133.204-.074.204-.074 4.272 4.246 4.272 4.247-33.7 33.438-33.7 33.438v21.95l39.233-38.926 39.232-38.926 4.63 4.593 4.629 4.593-43.862 43.381-43.862 43.381v11.026h11.356l43.732-43.389 43.732-43.39 4.351 4.317 4.35 4.317-38.716 38.415-38.716 38.415v.438h21.683l22.123-21.975 22.123-21.975 8.407-7.928 8.407-7.928 3.101-3.023 3.102-3.023 4.419 4.392 4.419 4.392-28.981 28.751-28.981 28.75v.446h21.68l23.673-23.487 23.673-23.487 23.673 23.487 23.673 23.487H299.97V183.024l-22.566-22.392-22.566-22.392 22.566-22.389 22.566-22.389V71.508l-28.099 27.879-28.099 27.879-4.402-4.375-4.402-4.375 21.809-21.891 21.809-21.891 10.693-10.708 10.693-10.708v-22.2l-38.276 37.977-38.276 37.977-4.348-4.321-4.347-4.321 42.624-42.29 42.624-42.29V.239h-8.408l-43.95 43.608-43.95 43.608-4.65-4.606-4.649-4.607 39.308-39.002L272.982.238H250.86l-33.778 33.514L183.3 67.266l-4.327-4.319-4.328-4.319 7.964-8.341 7.964-8.341 20.776-20.635L232.125.676V.239h-21.68l-23.673 23.487-23.673 23.487-23.673-23.487L115.751.239H-.029v57.586" clip-rule="evenodd"/><g fill="#1003A3"><path d="M-.029 358.054h32.822v-25.825H6.919v19.029H-.029v-26.019h33.021l6.739 6.811v26.377l-6.739 6.811H-.029v-7.184zM136.049 341.549h23.185l3.638-3.716v-1.944l-3.694-3.66H136.8l-6.916-6.99h33.167l6.771 6.78v9.812l-6.948 7.097h-9.065l16.199 16.311h-10.311l-23.648-23.69zM274.792 345.21l-14.949-19.971h10.188l9.849 13.158 9.826-13.158h10.217l-14.955 19.956 15.003 20.044h-10.188l-9.912-13.243-9.924 13.243h-10.111l14.956-20.029z"/></g></svg>