<?xml version="1.0" encoding="UTF-8"?>
<svg width="200" height="200" version="1.1" viewBox="0 0 200 200" xml:space="preserve" xmlns="http://www.w3.org/2000/svg" xmlns:cc="http://creativecommons.org/ns#" xmlns:dc="http://purl.org/dc/elements/1.1/" xmlns:rdf="http://www.w3.org/1999/02/22-rdf-syntax-ns#"><metadata><rdf:RDF><cc:Work rdf:about=""><dc:format>image/svg+xml</dc:format><dc:type rdf:resource="http://purl.org/dc/dcmitype/StillImage"/><dc:title/></cc:Work></rdf:RDF></metadata><path d="m186.86 78.846-36.632 63.29-22.741 39.388c-1.704 2.9506-4.8506 4.7666-8.2571 4.7666h-38.47c-3.4052 0-6.5545-1.816-8.2571-4.7666l-22.741-39.388-36.632-63.29c-1.7066-2.9479-1.7093-6.5825-0.01067-9.5344l19.225-33.383c1.7013-2.9519 4.8479-4.7732 8.2545-4.7759l8.7224-0.0093-3.8052 6.6092-3.1599 5.4839c-1.128 1.9586-1.1253 4.3706 0.0067 6.3278l24.306 41.992 15.088 26.133c1.1306 1.9586 3.2186 3.1639 5.4799 3.1639h25.518c2.2613 0 4.3506-1.2053 5.4799-3.1639l15.089-26.133 24.305-41.992c1.132-1.9573 1.1346-4.3692 7e-3 -6.3278l-3.1599-5.4839-3.8052-6.6092 8.7224 0.0093c3.4079 0.0027 6.5532 1.824 8.2531 4.7759l14.465 25.115 4.7599 8.2678c1.7013 2.9519 1.6973 6.5865-9e-3 9.5344m-122.41-49.484 1.948-3.3826 5.9185-10.276c0.69465-1.208 1.9826-1.9533 3.3746-1.9546l13.018-0.01333-0.0147-0.02533 11.296 0.012 11.294-0.012-0.0133 0.02533 13.016 0.01333c1.3933 0.0013 2.6813 0.74665 3.3772 1.9546l5.9172 10.276 1.948 3.3826c0.69599 1.208 0.69332 2.6946-4e-3 3.9012l-14.988 25.894-9.3038 16.116c-0.69731 1.2066-1.9853 1.9506-3.3786 1.9506h-15.73c-1.3946 0-2.6826-0.74399-3.3786-1.9506l-9.3051-16.116-14.988-25.894c-0.69865-1.2066-0.69998-2.6933-4e-3 -3.9012" fill="#ce0037"/></svg>
